<svg width="40" height="40" viewBox="0 0 40 40" fill="none" xmlns="http://www.w3.org/2000/svg">
<path d="M20 3.33333C19.1159 3.33333 18.2681 3.68452 17.643 4.30964C17.0179 4.93476 16.6667 5.78261 16.6667 6.66666C16.655 6.82756 16.655 6.9891 16.6667 7.14999C11.8667 8.56666 8.33333 13.0333 8.33333 18.3333V28.3333L5 31.6667V33.3333H35V31.6667L31.6667 28.3333V18.3333C31.6667 13.0333 28.1333 8.56666 23.3333 7.14999C23.345 6.9891 23.345 6.82756 23.3333 6.66666C23.3333 5.78261 22.9821 4.93476 22.357 4.30964C21.7319 3.68452 20.8841 3.33333 20 3.33333ZM20 9.99999C22.2101 9.99999 24.3298 10.878 25.8926 12.4408C27.4554 14.0036 28.3333 16.1232 28.3333 18.3333V30H11.6667V18.3333C11.6667 16.1232 12.5446 14.0036 14.1074 12.4408C15.6702 10.878 17.7899 9.99999 20 9.99999ZM35 11.6667V21.6667H38.3333V11.6667H35ZM35 25V28.3333H38.3333V25H35ZM16.6667 35C16.6667 35.884 17.0179 36.7319 17.643 37.357C18.2681 37.9821 19.1159 38.3333 20 38.3333C20.8841 38.3333 21.7319 37.9821 22.357 37.357C22.9821 36.7319 23.3333 35.884 23.3333 35H16.6667Z" fill="white"/>
</svg>
